<?xml version="1.0" encoding="UTF-8"?><svg xmlns="http://www.w3.org/2000/svg" xmlns:xlink="http://www.w3.org/1999/xlink" viewBox="0 0 48 48" version="1.1"><g id="surface1"><path d="M0 12v24h25l23-24z" fill="#1976D2"/><path d="M27.5 18H23v9.5L19.2 18h-3.5l-3.087 7.883c-.406-1.75-2.261-2.418-3.414-2.684C6.2 22.4 6 22 6 21.4c0-1.5 4-.797 5-.399.3-.8.898-2.3.898-2.3s-1.097-.7-4.5-.7C4 18 3 20.102 3 21.398c0 1.301.7 2.801 2.602 3.403 2 .597 3.5.699 3.5 1.699s-3.403 1.2-5.301 0L3 29.102S4.102 30 7.398 30c1.782 0 3.168-.504 4.082-1.227L11 30h3.5l.602-1.8c.699.3 1.5.5 2.398.5.898 0 1.7-.2 2.398-.5L20.5 30H26v-3h1.5c2.5 0 4.5-2 4.5-4.5S30 18 27.5 18zm-10 8.102c-.602 0-1.102-.102-1.5-.403l1.5-4.3 1.5 4.3c-.398.301-.898.403-1.5.403zM27.5 24H26v-3h1.5c.8 0 1.5.7 1.5 1.5s-.7 1.5-1.5 1.5z" fill="#FFF"/></g><metadata><rdf:RDF xmlns:rdf="http://www.w3.org/1999/02/22-rdf-syntax-ns#" xmlns:rdfs="http://www.w3.org/2000/01/rdf-schema#" xmlns:dc="http://purl.org/dc/elements/1.1/"><rdf:Description about="https://iconscout.com/legal#licenses" dc:title="sap" dc:description="sap" dc:publisher="Iconscout" dc:date="2017-12-15" dc:format="image/svg+xml" dc:language="en"><dc:creator><rdf:Bag><rdf:li>Icons8</rdf:li></rdf:Bag></dc:creator></rdf:Description></rdf:RDF></metadata></svg>